<svg width="201" height="239" viewBox="0 0 201 239" fill="none" xmlns="http://www.w3.org/2000/svg">
<g clip-path="url(#clip0_20_10859)">
<mask id="mask0_20_10859" style="mask-type:luminance" maskUnits="userSpaceOnUse" x="0" y="0" width="201" height="239">
<path d="M201 0H0V238.907H201V0Z" fill="white"/>
</mask>
<g mask="url(#mask0_20_10859)">
<mask id="mask1_20_10859" style="mask-type:luminance" maskUnits="userSpaceOnUse" x="0" y="0" width="201" height="393">
<path d="M201 0H0V392.263H201V0Z" fill="white"/>
</mask>
<g mask="url(#mask1_20_10859)">
<mask id="mask2_20_10859" style="mask-type:luminance" maskUnits="userSpaceOnUse" x="0" y="0" width="201" height="393">
<path d="M201 0H0V392.263H201V0Z" fill="white"/>
</mask>
<g mask="url(#mask2_20_10859)">
<path d="M106.323 204.034V233.109C106.332 233.229 106.364 233.345 106.417 233.452C106.471 233.559 106.545 233.655 106.636 233.733C106.727 233.811 106.832 233.871 106.946 233.908C107.059 233.945 107.179 233.96 107.299 233.951C113.977 233.474 120.58 232.231 126.976 230.248C127.156 230.191 127.313 230.08 127.426 229.929C127.54 229.778 127.603 229.595 127.606 229.406V158.211C127.608 157.989 127.527 157.774 127.379 157.608C127.232 157.442 127.028 157.336 126.807 157.311C120.425 156.604 113.883 156.133 107.231 155.956C107.11 155.953 106.989 155.974 106.876 156.018C106.763 156.062 106.66 156.128 106.573 156.213C106.486 156.298 106.417 156.399 106.369 156.511C106.322 156.623 106.298 156.743 106.298 156.865V182.507H94.9458V156.873C94.9447 156.753 94.9199 156.634 94.8728 156.523C94.8257 156.412 94.7573 156.311 94.6714 156.227C94.5855 156.143 94.4838 156.076 94.3722 156.031C94.2606 155.986 94.1411 155.963 94.0208 155.964C87.3693 156.141 80.8271 156.595 74.4447 157.302C74.2178 157.321 74.006 157.424 73.8506 157.59C73.6951 157.757 73.6072 157.975 73.6038 158.203V229.575C73.6099 229.765 73.6757 229.949 73.7919 230.1C73.9081 230.251 74.0688 230.362 74.2513 230.416C80.6602 232.343 87.2672 233.534 93.9451 233.968C94.0688 233.977 94.1931 233.96 94.3101 233.919C94.4272 233.878 94.5345 233.813 94.6253 233.729C94.7161 233.644 94.7884 233.542 94.8378 233.428C94.8872 233.314 94.9125 233.191 94.9121 233.067V204.034H106.323Z" fill="white"/>
<path d="M67.5998 158.161C59.7229 159.261 51.9193 160.835 44.2313 162.873C44.1044 162.907 43.9865 162.968 43.8861 163.052C43.7858 163.136 43.7055 163.242 43.651 163.362L34.5357 182.498H33.0305V167.578C33.0263 167.434 32.9885 167.294 32.9201 167.168C32.8518 167.042 32.7549 166.933 32.6371 166.851C32.5193 166.769 32.384 166.716 32.242 166.696C32.1001 166.676 31.9554 166.69 31.8196 166.736C26.6221 168.566 21.5394 170.707 16.5993 173.149C15.6659 173.62 14.7493 174.1 13.8496 174.579C13.6423 174.693 13.4881 174.884 13.4204 175.111C13.3528 175.338 13.377 175.582 13.488 175.791C20.5011 189.037 28.9942 200.566 38.9504 209.823C39.0542 209.917 39.1783 209.985 39.313 210.022C39.4476 210.06 39.5891 210.065 39.7261 210.038C39.8632 210.011 39.9921 209.953 40.1027 209.867C40.2133 209.782 40.3024 209.672 40.3631 209.546L45.8794 198.437H47.3174V216.329C47.3186 216.471 47.3527 216.611 47.4169 216.738C47.481 216.865 47.5736 216.975 47.6873 217.061C53.7628 221.552 60.3866 225.248 67.398 228.06C67.5351 228.113 67.6831 228.132 67.8292 228.115C67.9753 228.099 68.1152 228.047 68.2368 227.964C68.3584 227.881 68.4581 227.77 68.5273 227.64C68.5965 227.51 68.6332 227.365 68.6341 227.218V159.053C68.6342 158.923 68.6064 158.794 68.5525 158.676C68.4987 158.557 68.4201 158.452 68.322 158.367C68.224 158.281 68.1088 158.218 67.9842 158.181C67.8596 158.144 67.7285 158.134 67.5998 158.152" fill="white"/>
<path d="M179.305 172.139C177.102 170.776 169.836 166.669 165.245 165.053C165.034 164.976 164.803 164.98 164.594 165.064C164.386 165.148 164.217 165.306 164.118 165.507C162.546 168.823 155.835 182.524 155.835 182.524H154.313L154.179 162.907C154.173 162.711 154.103 162.523 153.98 162.371C153.857 162.219 153.688 162.112 153.498 162.066C147.216 160.509 140.666 159.238 133.905 158.262C133.776 158.244 133.645 158.253 133.52 158.29C133.396 158.327 133.281 158.391 133.182 158.476C133.084 158.561 133.006 158.667 132.952 158.785C132.898 158.904 132.87 159.032 132.87 159.162V226.84C132.871 226.988 132.907 227.134 132.977 227.264C133.047 227.395 133.147 227.507 133.27 227.59C133.393 227.673 133.534 227.725 133.681 227.741C133.828 227.756 133.977 227.736 134.115 227.681C141.121 224.771 147.738 221.003 153.817 216.463C153.93 216.377 154.021 216.267 154.084 216.14C154.147 216.013 154.179 215.873 154.179 215.731V204.017C156.042 203.878 157.914 204.11 159.687 204.701C161.459 205.292 163.097 206.229 164.505 207.459C169.435 202.597 173.968 197.349 178.06 191.764C178.189 191.577 178.244 191.35 178.216 191.125C178.188 190.9 178.079 190.693 177.909 190.544C176.422 189.228 174.801 188.071 173.074 187.093L179.675 173.359C179.775 173.151 179.793 172.913 179.724 172.693C179.655 172.472 179.506 172.286 179.305 172.173" fill="white"/>
<path d="M135.763 8.12095C135.894 8.02731 135.998 7.90057 136.063 7.75369C136.129 7.60681 136.155 7.44506 136.138 7.28499C136.121 7.12491 136.062 6.97226 135.966 6.84264C135.871 6.71302 135.743 6.61108 135.595 6.54725C127.947 3.25153 119.874 1.04757 111.613 0C102.951 28.1667 102.909 61.5762 101.749 146.682C102.59 146.682 103.355 146.682 104.162 146.682C106.87 80.814 107.711 27.4093 135.797 8.0957" fill="white"/>
<path d="M120.475 83.4985C130.819 52.2434 147.519 36.8009 172.241 35.7743C172.409 35.7669 172.572 35.7125 172.711 35.6173C172.849 35.5221 172.959 35.3898 173.026 35.2356C173.093 35.0813 173.116 34.9113 173.092 34.7447C173.068 34.5781 172.997 34.4217 172.889 34.2931C166.973 27.2862 160.169 21.082 152.648 15.838C128.926 24.0599 118.382 44.5516 112.521 81.9585C109.771 99.4627 107.769 121.175 106.559 146.758C107.399 146.758 108.156 146.808 108.955 146.834C110.301 126.317 115.077 99.833 120.475 83.5153" fill="white"/>
<path d="M125.647 108.089C144.778 71.0604 178.304 66.0111 196.939 84.3148C197.079 84.4425 197.255 84.5227 197.444 84.544C197.632 84.5652 197.822 84.5265 197.987 84.4332C198.152 84.3399 198.283 84.1969 198.362 84.0245C198.441 83.8522 198.464 83.6592 198.427 83.4733C195.513 71.8858 190.966 60.7725 184.922 50.4677C142.28 38.7702 116.364 87.4959 111.385 146.951C112.226 146.951 113.008 147.01 113.816 147.052C116.187 130.718 118.617 121.739 125.647 108.131" fill="white"/>
<path d="M200.395 103.755C184.325 84.6851 154.229 79.821 133.627 106.01C126.21 115.435 118.979 129.22 116.153 147.162C116.994 147.212 117.835 147.254 118.626 147.313C122.973 129.296 134.216 119.811 144.693 116.639C169.13 109.25 193.466 126.981 195.702 147.7C195.803 148.542 197.216 148.416 197.384 147.557C199.767 137.427 200.972 127.055 200.975 116.647C200.975 112.296 200.765 107.988 200.369 103.755" fill="white"/>
<path d="M89.3876 0C81.127 1.04976 73.0542 3.25364 65.4052 6.54725C65.2581 6.61194 65.1307 6.71455 65.0361 6.8446C64.9416 6.97465 64.8832 7.12748 64.867 7.2875C64.8507 7.44751 64.8772 7.60897 64.9437 7.75539C65.0102 7.90182 65.1143 8.02796 65.2454 8.12095C93.3398 27.4345 94.1807 80.8392 96.8716 146.707C97.7125 146.707 98.4777 146.707 99.2934 146.707C98.0993 61.5762 98.0489 28.1667 89.3876 0Z" fill="white"/>
<path d="M88.4877 81.9585C82.6014 44.5516 72.0733 24.0683 48.36 15.8295C40.8412 21.0791 34.0373 27.2858 28.1195 34.2931C28.0109 34.4217 27.9404 34.5781 27.9162 34.7447C27.8919 34.9113 27.9148 35.0814 27.9822 35.2356C28.0496 35.3898 28.1589 35.5221 28.2976 35.6173C28.4364 35.7125 28.599 35.7669 28.767 35.7743C53.481 36.801 70.1813 52.2434 80.5243 83.4985C85.9313 99.8162 90.7076 126.3 92.0447 146.817C92.8856 146.817 93.6424 146.758 94.4496 146.741C93.2387 121.175 91.229 99.4627 88.4877 81.9417" fill="white"/>
<path d="M16.0864 50.4256C10.0399 60.7301 5.48986 71.8434 2.57316 83.4312C2.53946 83.6173 2.56458 83.8092 2.64502 83.9803C2.72547 84.1514 2.85723 84.2931 3.02195 84.3857C3.18667 84.4783 3.37615 84.5172 3.564 84.497C3.75185 84.4767 3.92871 84.3983 4.06996 84.2728C22.6959 66.0027 56.2057 70.9931 75.3529 108.038C82.3829 121.654 84.8215 130.634 87.1928 146.977C88.0337 146.926 88.8073 146.901 89.6146 146.867C84.6365 87.437 58.7284 38.7113 16.0864 50.4256Z" fill="white"/>
<path d="M67.3729 106.035C46.7709 79.8125 16.6751 84.6851 0.613926 103.755C0.204689 107.985 7.02272e-05 112.282 7.02272e-05 116.647C-0.0105358 127.053 1.18022 137.425 3.54866 147.557C3.75048 148.399 5.13796 148.576 5.23046 147.7C8.10633 127.284 30.037 110.15 56.2478 116.639C66.902 119.273 78.0018 129.262 82.3156 147.313L84.7879 147.153C82.0297 129.22 74.84 115.435 67.3729 106.035Z" fill="white"/>
</g>
</g>
</g>
</g>
<defs>
<clipPath id="clip0_20_10859">
<rect width="201" height="239" fill="white"/>
</clipPath>
</defs>
</svg>
